<?xml version="1.0" encoding="UTF-8"?>
<svg xmlns="http://www.w3.org/2000/svg" xmlns:xlink="http://www.w3.org/1999/xlink" viewBox="0 0 16 16" width="16px" height="16px">
<g id="surface119849019">
<path style=" stroke:none;fill-rule:nonzero;fill:rgb(100%,100%,100%);fill-opacity:1;" d="M 14.25 11.121094 C 13.902344 11.886719 13.738281 12.230469 13.292969 12.90625 C 12.671875 13.851562 11.796875 15.03125 10.714844 15.039062 C 9.75 15.046875 9.5 14.410156 8.191406 14.421875 C 6.886719 14.425781 6.613281 15.050781 5.648438 15.039062 C 4.5625 15.03125 3.734375 13.96875 3.113281 13.023438 C 1.375 10.378906 1.191406 7.273438 2.265625 5.625 C 3.027344 4.453125 4.226562 3.765625 5.355469 3.765625 C 6.507812 3.765625 7.230469 4.398438 8.179688 4.398438 C 9.101562 4.398438 9.664062 3.765625 10.992188 3.765625 C 11.996094 3.765625 13.058594 4.3125 13.820312 5.257812 C 11.335938 6.621094 11.738281 10.171875 14.25 11.121094 Z M 9.984375 2.710938 C 10.464844 2.089844 10.832031 1.210938 10.699219 0.320312 C 9.910156 0.375 8.988281 0.878906 8.449219 1.53125 C 7.960938 2.125 7.554688 3.007812 7.714844 3.859375 C 8.574219 3.890625 9.464844 3.375 9.984375 2.710938 Z M 9.984375 2.710938 "/>
</g>
</svg>
